/* XPM */
static char * bamboo_xpm[] = {
"50 50 418 2",
"  	c #FFFFFE",
". 	c #399519",
"+ 	c #82BC4F",
"@ 	c #41A222",
"# 	c #75C13C",
"$ 	c #AAD263",
"% 	c #007800",
"& 	c #7ECC4E",
"* 	c #49AC2A",
"= 	c #9DCF63",
"- 	c #158B07",
"; 	c #97D647",
"> 	c #007F00",
", 	c #7FCC47",
"' 	c #237A13",
") 	c #4FB42D",
"! 	c #A8D760",
"~ 	c #369D04",
"{ 	c #9FD447",
"] 	c #018200",
"^ 	c #88CF46",
"/ 	c #288115",
"( 	c #52B82C",
"_ 	c #A8D258",
": 	c #218D0F",
"< 	c #6EBC25",
"[ 	c #048400",
"} 	c #8ACE45",
"| 	c #298514",
"1 	c #6AC235",
"2 	c #178E08",
"3 	c #94D33D",
"4 	c #0A8B02",
"5 	c #94D14A",
"6 	c #0A8204",
"7 	c #83CE41",
"8 	c #3A9C06",
"9 	c #A0D447",
"0 	c #1B950C",
"a 	c #9DD14E",
"b 	c #078900",
"c 	c #94D44A",
"d 	c #20840F",
"e 	c #72BC2C",
"f 	c #33A119",
"g 	c #A6D351",
"h 	c #59AC2B",
"i 	c #9ED64F",
"j 	c #1B850C",
"k 	c #95D440",
"l 	c #007B00",
"m 	c #4EAE27",
"n 	c #A8D152",
"o 	c #247E12",
"p 	c #87CB47",
"q 	c #AAD954",
"r 	c #2E9102",
"s 	c #A0D647",
"t 	c #007700",
"u 	c #68BB33",
"v 	c #7CB13E",
"w 	c #77C148",
"x 	c #AFDF59",
"y 	c #38841D",
"z 	c #61AF1F",
"A 	c #9ECE48",
"B 	c #79C53B",
"C 	c #519729",
"D 	c #93D458",
"E 	c #9CD359",
"F 	c #207D0E",
"G 	c #86C937",
"H 	c #83CB41",
"I 	c #469820",
"J 	c #6ABF2B",
"K 	c #6FB242",
"L 	c #21880D",
"M 	c #98D640",
"N 	c #239211",
"O 	c #379511",
"P 	c #8ED147",
"Q 	c #048300",
"R 	c #99D84C",
"S 	c #5B9636",
"T 	c #289203",
"U 	c #8DCD3E",
"V 	c #319E1D",
"W 	c #2A9916",
"X 	c #127703",
"Y 	c #6EAA37",
"Z 	c #0E8202",
"` 	c #89CF44",
" .	c #448D1F",
"..	c #549C28",
"+.	c #AADF55",
"@.	c #046A01",
"#.	c #3BA616",
"$.	c #75BE35",
"%.	c #148302",
"&.	c #117D01",
"*.	c #5D9C28",
"=.	c #5E9F2C",
"-.	c #74C43B",
";.	c #89C545",
">.	c #7BC247",
",.	c #9FD850",
"'.	c #216D0B",
").	c #41B222",
"!.	c #65B12A",
"~.	c #2A8210",
"{.	c #539828",
"].	c #5DB51A",
"^.	c #5DAC2A",
"/.	c #9BD053",
"(.	c #679A3E",
"_.	c #8DC74B",
":.	c #67B933",
"<.	c #73B93A",
"[.	c #76BE49",
"}.	c #9FD551",
"|.	c #056501",
"1.	c #47A52C",
"2.	c #508F21",
"3.	c #3F9414",
"4.	c #85BE46",
"5.	c #61B226",
"6.	c #53B00A",
"7.	c #4AA208",
"8.	c #60AE28",
"9.	c #55AB1B",
"0.	c #72B943",
"a.	c #69B241",
"b.	c #77C63E",
"c.	c #4F9A29",
"d.	c #54B828",
"e.	c #81C241",
"f.	c #035D03",
"g.	c #3C7C1B",
"h.	c #3A8712",
"i.	c #5CAD21",
"j.	c #4FAB07",
"k.	c #49A503",
"l.	c #5AAD22",
"m.	c #72B10E",
"n.	c #80BB10",
"o.	c #6AB733",
"p.	c #2D7905",
"q.	c #1B7C0E",
"r.	c #60A93B",
"s.	c #2A7219",
"t.	c #3AB11E",
"u.	c #6CB336",
"v.	c #258002",
"w.	c #74AE32",
"x.	c #24840D",
"y.	c #0C7D00",
"z.	c #20910A",
"A.	c #036C04",
"B.	c #4B8628",
"C.	c #1E6D13",
"D.	c #389825",
"E.	c #5C9D31",
"F.	c #4CA20C",
"G.	c #92C942",
"H.	c #168E09",
"I.	c #74A93A",
"J.	c #006200",
"K.	c #317A12",
"L.	c #346D1A",
"M.	c #6DBB23",
"N.	c #89C43C",
"O.	c #5FB41E",
"P.	c #6BBD30",
"Q.	c #6FBA39",
"R.	c #56A423",
"S.	c #27A113",
"T.	c #8FC046",
"U.	c #067B00",
"V.	c #6FB12B",
"W.	c #457C20",
"X.	c #87CC36",
"Y.	c #53A01F",
"Z.	c #329401",
"`.	c #66BB28",
" +	c #52AE0B",
".+	c #4EA213",
"++	c #52AF08",
"@+	c #4DA011",
"#+	c #4AA503",
"$+	c #5AB515",
"%+	c #48A009",
"&+	c #49AF1D",
"*+	c #94CD47",
"=+	c #36970D",
"-+	c #91CE41",
";+	c #1B7408",
">+	c #97D73E",
",+	c #117400",
"'+	c #5FAC1A",
")+	c #4AA107",
"!+	c #6EA11B",
"~+	c #127500",
"{+	c #0E7700",
"]+	c #0D7F00",
"^+	c #398911",
"/+	c #45AE21",
"(+	c #7AAE38",
"_+	c #269205",
":+	c #93CE3F",
"<+	c #158000",
"[+	c #91D03D",
"}+	c #A1D316",
"|+	c #8ABA1F",
"1+	c #9BC400",
"2+	c #138C00",
"3+	c #188F01",
"4+	c #31A41B",
"5+	c #3A8916",
"6+	c #4AB125",
"7+	c #5A972B",
"8+	c #329D04",
"9+	c #8FC540",
"0+	c #359402",
"a+	c #9BD545",
"b+	c #29A014",
"c+	c #A0D804",
"d+	c #73A520",
"e+	c #91C905",
"f+	c #2A9F16",
"g+	c #329920",
"h+	c #4BA30C",
"i+	c #48AE16",
"j+	c #61A82B",
"k+	c #4EAD0A",
"l+	c #8EBD40",
"m+	c #4EA410",
"n+	c #A2D44A",
"o+	c #2A9F12",
"p+	c #7DBC02",
"q+	c #7ABF11",
"r+	c #2A960D",
"s+	c #139B07",
"t+	c #5CB11C",
"u+	c #47A202",
"v+	c #5CAF22",
"w+	c #388517",
"x+	c #60B617",
"y+	c #7DA93A",
"z+	c #62B11D",
"A+	c #A0D049",
"B+	c #0D7F01",
"C+	c #218801",
"D+	c #329407",
"E+	c #1B8600",
"F+	c #60A62B",
"G+	c #22730C",
"H+	c #72BC25",
"I+	c #6F9635",
"J+	c #71BC28",
"K+	c #9FCE49",
"L+	c #107A00",
"M+	c #137100",
"N+	c #6AAB00",
"O+	c #307715",
"P+	c #77C63B",
"Q+	c #046701",
"R+	c #6FB52B",
"S+	c #5E852C",
"T+	c #7EC630",
"U+	c #94C442",
"V+	c #70B20E",
"W+	c #66AC06",
"X+	c #91C614",
"Y+	c #2E6B16",
"Z+	c #75BF3C",
"`+	c #006201",
" @	c #2E9B19",
".@	c #2F6C15",
"+@	c #87CE35",
"@@	c #729F31",
"#@	c #106602",
"$@	c #0E7F00",
"%@	c #108C00",
"&@	c #269D0C",
"*@	c #35A720",
"=@	c #005D04",
"-@	c #67BA2F",
";@	c #1E7603",
">@	c #27A610",
",@	c #016703",
"'@	c #8DD43C",
")@	c #99CF1C",
"!@	c #6EB839",
"~@	c #6BBB31",
"{@	c #358B07",
"]@	c #4BB61B",
"^@	c #44A60B",
"/@	c #1C9906",
"(@	c #067203",
"_@	c #78C947",
":@	c #5D7F2B",
"<@	c #61A601",
"[@	c #7EBF09",
"}@	c #96CB1B",
"|@	c #40950A",
"1@	c #48A619",
"2@	c #4CB003",
"3@	c #1D950A",
"4@	c #195B18",
"5@	c #237119",
"6@	c #137500",
"7@	c #0F8300",
"8@	c #189309",
"9@	c #188B0B",
"0@	c #0E9801",
"a@	c #179E07",
"b@	c #179303",
"c@	c #1D860F",
"d@	c #1F8801",
"e@	c #2C9215",
"f@	c #0D6802",
"g@	c #54A507",
"h@	c #70BE02",
"i@	c #54A800",
"j@	c #0B8000",
"k@	c #0E8D00",
"l@	c #037102",
"m@	c #0F7E03",
"n@	c #257E19",
"o@	c #6CB123",
"p@	c #8DC901",
"q@	c #9DD70D",
"r@	c #76B710",
"s@	c #68B602",
"t@	c #8FCE12",
"u@	c #126303",
"v@	c #228200",
"w@	c #298E00",
"x@	c #148600",
"y@	c #199002",
"z@	c #249C0F",
"A@	c #2E9C1A",
"B@	c #349B22",
"C@	c #005D03",
"D@	c #549106",
"E@	c #A2CE02",
"F@	c #A7DC0C",
"G@	c #87C41A",
"H@	c #7CC519",
"I@	c #71BE00",
"J@	c #6FBA00",
"K@	c #A2DA17",
"L@	c #138500",
"M@	c #0E7300",
"N@	c #65B105",
"O@	c #84CB00",
"P@	c #88CA00",
"Q@	c #7BC200",
"R@	c #598C05",
"S@	c #98CD14",
"T@	c #79BC17",
"U@	c #71AE36",
"V@	c #258402",
"W@	c #83C511",
"X@	c #87C900",
"Y@	c #A6DC03",
"Z@	c #128A00",
"`@	c #3D9200",
" #	c #6BB508",
".#	c #99D11C",
"+#	c #A6DB12",
"@#	c #A5DA00",
"##	c #ABDB00",
"$#	c #3C7D0E",
"%#	c #086F05",
"&#	c #179808",
"*#	c #81BB41",
"=#	c #2E8903",
"-#	c #8FCA0D",
";#	c #88C600",
">#	c #A7DC00",
",#	c #0A9A00",
"'#	c #218F0D",
")#	c #82C600",
"!#	c #90CB16",
"~#	c #7CC606",
"{#	c #9BD21D",
"]#	c #A2D817",
"^#	c #A3D808",
"/#	c #005C04",
"(#	c #046804",
"_#	c #21A00F",
":#	c #85BB42",
"<#	c #348D05",
"[#	c #94CA02",
"}#	c #93C700",
"|#	c #B1DF00",
"1#	c #6EB520",
"2#	c #239812",
"3#	c #9ED600",
"4#	c #95D000",
"5#	c #005A04",
"6#	c #036204",
"7#	c #2DA516",
"8#	c #89B943",
"9#	c #368E06",
"0#	c #9ECF00",
"a#	c #ABDA00",
"b#	c #6DB31C",
"c#	c #A3D816",
"d#	c #A3DA1B",
"e#	c #005304",
"f#	c #024905",
"g#	c #349A1A",
"h#	c #7EA73E",
"i#	c #2F7E04",
"j#	c #87B40E",
"k#	c #91C00E",
"                                                                                                    ",
"                                                                                                    ",
"                                                                                                    ",
"                                                  . +                                               ",
"                                  @               # $                                               ",
"                                % &     * =     - ;                                                 ",
"                                > ,   ' ) !     ~ {                                                 ",
"                                ] ^   / ( _   : <                                                   ",
"                                [ }   | 1     2 3                                                   ",
"                                4 5   6 7     8 9                                                   ",
"                                0 a   b c   d e                                                     ",
"                                f g   h i   j k                                                     ",
"                              l m n o p q   r s                                                     ",
"                              t u   v w x y z A                                                     ",
"                              % B   C D E F G                                                       ",
"                              l H   I J K L M                                                       ",
"                          N   O P   Q R S T U V                                                     ",
"                        W X Y Z `  ...+.@.#.$.%.&.                                                  ",
"                            *.=.-.;.>.,.'.).!.~.{.    ].                                            ",
"                        ^./.(._.:.<.[.}.|.1.2.3.4.  5.6.7.8.                                        ",
"                          9.0.a.b.c.d.e.f.g.h.      i.j.k.l.    m.n.                                ",
"                          o.p.q.r.s.t.u.v.w.x.                  y.z.                                ",
"                              A.B.C.D.E.F.G.                                                        ",
"                              H.I.J.K.L.M.N.O.                P.Q.                                  ",
"                            R.S.T.U.V.W.X.Y.Z.  `.       +.+++@+#+$+                                ",
"                            %+&+*+=+-+;+>+  ,+'+)+  !+    ~+{+]+                                    ",
"                            ^+/+(+_+:+<+[+    }+  |+1+      2+  3+4+                                ",
"                            5+6+7+8+9+0+a+b+  c+d+e+          f+    g+                              ",
"                            h+i+j+k+l+m+n+o+  p+q+r+s+                                              ",
"                          t+u+v+w+x+y+z+A+  B+  C+D+                                                ",
"                            E+F+G+H+I+J+K+  L+M+N+                                                  ",
"                            O+P+Q+R+S+T+U+      V+W+X+                                              ",
"                            Y+Z+`+ @.@+@@@    #@$@%@&@*@                                            ",
"                            =@-@;@>@,@'@                )@                                          ",
"                        !@~@{@]@^@/@(@_@:@              <@[@}@                                      ",
"                            |@1@2@3@4@5@              6@7@8@9@                                      ",
"                        0@a@b@c@d@e@f@g@h@i@          ~+j@k@                                        ",
"                            l@m@n@o@p@q@r@s@t@      u@v@w@x@y@z@A@B@                                ",
"                            C@D@E@F@G@H@I@J@K@    L@M@N@O@P@Q@                                      ",
"                            R@S@T@U@V@W@X@  Y@    Z@`@ #  .#+#@###                                  ",
"                            $#%#&#*#=#-#;#  >#  ,#'#)#!#~#      {#]#^#                              ",
"                            /#(#_#:#<#[#}#  |#1#2#  3#    4#                                        ",
"                            5#6#7#8#9#0#    a#b#    c#    d#                                        ",
"                            e#f#g#h#i#j#                    k#                                      ",
"                                                                                                    ",
"                                                                                                    ",
"                                                                                                    ",
"                                                                                                    ",
"                                                                                                    ",
"                                                                                                    "};
